<svg xmlns="http://www.w3.org/2000/svg" fill="none" viewBox="0 0 20 20" height="20" width="20">
<g clip-path="url(#clip0_17121_26189)">
<path fill="#00DD80" d="M17.6553 13.3559C17.1178 14.8128 16.3048 16.0796 15.2387 17.1207C14.0251 18.3057 12.4361 19.2473 10.5156 19.919C10.4526 19.941 10.3868 19.959 10.3207 19.9723C10.2335 19.9895 10.1447 19.9988 10.0566 20H10.0394C9.94553 20 9.85123 19.9906 9.75769 19.9723C9.69162 19.959 9.62677 19.941 9.56406 19.9195C7.6413 19.2488 6.05026 18.3077 4.83551 17.1227C3.76892 16.0816 2.95608 14.8155 2.41928 13.3586C1.44317 10.7097 1.49871 7.79161 1.54342 5.44663L1.54418 5.41062C1.55319 5.21699 1.55898 5.01359 1.56219 4.78898C1.57852 3.68623 2.45529 2.7739 3.55819 2.71241C5.8577 2.58408 7.63657 1.83411 9.1565 0.352636L9.16977 0.340429C9.42215 0.108952 9.74015 -0.00457308 10.0566 0.000157169C10.3618 0.00412447 10.6657 0.117497 10.9091 0.340429L10.9221 0.352636C12.4423 1.83411 14.2212 2.58408 16.5207 2.71241C17.6236 2.7739 18.5004 3.68623 18.5167 4.78898C18.5199 5.01512 18.5257 5.21821 18.5347 5.41062L18.5352 5.42588C18.5797 7.77528 18.635 10.6992 17.6553 13.3559Z"></path>
<path fill="#00AA63" d="M17.6553 13.3559C17.1178 14.8128 16.3048 16.0796 15.2387 17.1207C14.0251 18.3057 12.4361 19.2473 10.5156 19.919C10.4526 19.941 10.3868 19.959 10.3207 19.9722C10.2335 19.9895 10.1447 19.9988 10.0566 20V0.000152588C10.3618 0.00411989 10.6657 0.117493 10.9091 0.340424L10.9221 0.352631C12.4423 1.83411 14.2212 2.58408 16.5207 2.7124C17.6236 2.7739 18.5004 3.68622 18.5167 4.78898C18.5199 5.01511 18.5257 5.21821 18.5347 5.41062L18.5352 5.42588C18.5797 7.77528 18.635 10.6992 17.6553 13.3559Z"></path>
<path fill="white" d="M15.0235 10C15.0235 12.7425 12.7968 14.9748 10.0566 14.9846H10.0391C7.2908 14.9846 5.05447 12.7484 5.05447 10C5.05447 7.25176 7.2908 5.01558 10.0391 5.01558H10.0566C12.7968 5.02534 15.0235 7.25771 15.0235 10Z"></path>
<path fill="#E1EBF0" d="M15.0235 10C15.0235 12.7425 12.7968 14.9748 10.0566 14.9846V5.01558C12.7968 5.02534 15.0235 7.25771 15.0235 10Z"></path>
<path fill="#B4D2D7" d="M12.3015 9.28224L10.0566 11.5274L9.57154 12.0125C9.45694 12.1271 9.30664 12.1843 9.1565 12.1843C9.0062 12.1843 8.85605 12.1271 8.7413 12.0125L7.69836 10.9691C7.46918 10.7399 7.46918 10.3687 7.69836 10.1393C7.92725 9.91014 8.29895 9.91014 8.52814 10.1393L9.1565 10.7677L11.4717 8.45246C11.7009 8.22312 12.0726 8.22312 12.3015 8.45246C12.5307 8.68165 12.5307 9.05335 12.3015 9.28224Z"></path>
<path fill="#6FA5AA" d="M12.3015 9.28223L10.0566 11.5274V9.86741L11.4717 8.45246C11.7009 8.22312 12.0726 8.22312 12.3015 8.45246C12.5307 8.68165 12.5307 9.05335 12.3015 9.28223Z"></path>
</g>
<defs>
<clipPath id="clip0_17121_26189">
<rect fill="white" height="20" width="20"></rect>
</clipPath>
</defs>
</svg>
